PathFileType  4	(X/Y/Z) C:\Users\antoi\Documents\MyRepositories\mobilecap\ResultsAnalysis
DataRate	CameraRate	NumFrames	NumMarkers	Units	OrigDataRate	OrigDataStartFrame	OrigNumFrames
100.0	100.0	4	51	mm	100.0	629	1257
Frame#	Time	r_knee			r_shank_antsup			r_ankle			r_calc			r_5meta			r_toe			L_knee			L_shank_antsup			L_ankle			L_calc			L_5meta			L_toe			r_sh2			r_sh3			r_sh4			L_sh2			L_sh3			r_thigh1			r_thigh2			r_thigh3			r_thigh4			r_thigh5			L_thigh1			L_thigh2			L_thigh3			L_thigh4			r.ASIS			r.PSIS			L.ASIS			L.PSIS			C7			R_Shoulder			L_Shoulder			R_Sternum			L_Sternum			R_humerus			R_elbow_med			R_elbow_lat			R_forearm			R_wrist_radius			R_wrist_ulna			L_humerus			L_elbow_med			L_elbow_lat			L_forearm			L_wrist_radius			L_wrist_ulna			R_HJC			L_HJC			R_HJC_reg			L_HJC_reg			
		X1	Y1	Z1	X2	Y2	Z2	X3	Y3	Z3	X4	Y4	Z4	X5	Y5	Z5	X6	Y6	Z6	X7	Y7	Z7	X8	Y8	Z8	X9	Y9	Z9	X10	Y10	Z10	X11	Y11	Z11	X12	Y12	Z12	X13	Y13	Z13	X14	Y14	Z14	X15	Y15	Z15	X16	Y16	Z16	X17	Y17	Z17	X18	Y18	Z18	X19	Y19	Z19	X20	Y20	Z20	X21	Y21	Z21	X22	Y22	Z22	X23	Y23	Z23	X24	Y24	Z24	X25	Y25	Z25	X26	Y26	Z26	X27	Y27	Z27	X28	Y28	Z28	X29	Y29	Z29	X30	Y30	Z30	X31	Y31	Z31	X32	Y32	Z32	X33	Y33	Z33	X34	Y34	Z34	X35	Y35	Z35	X36	Y36	Z36	X37	Y37	Z37	X38	Y38	Z38	X39	Y39	Z39	X40	Y40	Z40	X41	Y41	Z41	X42	Y42	Z42	X43	Y43	Z43	X44	Y44	Z44	X45	Y45	Z45	X46	Y46	Z46	X47	Y47	Z47	X48	Y48	Z48	X49	Y49	Z49	X50	Y50	Z50	X51	Y51	Z51	

629	6.28000000	-145.06289	432.91140	-408.04879	-135.80517	360.68414	-386.79775	-268.00580	90.55445	-421.35918	-337.43182	52.99544	-459.75324	-169.14983	50.72999	-390.06817	-125.78190	73.52787	-444.22823	-211.49325	458.09178	-801.90118	-178.14076	396.42079	-837.92035	-269.81044	98.49996	-867.59538	-336.26128	57.62929	-816.53629	-182.41203	44.58115	-906.78439	-127.74711	67.72015	-858.05221	-173.82675	253.32239	-384.53219	-207.53326	383.85510	-390.09260	-253.07200	278.02503	-388.73596	-263.50824	420.75456	-822.27619	-289.21875	304.96761	-851.84639	-323.43835	679.18662	-366.02752	-234.94955	610.06795	-380.99459	-237.00737	559.42150	-337.24941	-365.59701	609.76149	-288.24031	-284.31060	531.18072	-322.94849	-375.85716	655.64576	-680.54640	-274.11135	585.90725	-739.79576	-452.35836	568.04922	-695.65689	-340.59458	500.72795	-754.53414	-344.48041	707.90083	-366.79570	-505.78601	787.40888	-433.04513	-361.35275	673.30841	-613.86067	-513.20447	768.33550	-536.99349	-168.69250	1089.72778	-445.73977	-124.24561	989.61312	-311.07930	-101.39891	1025.63009	-605.47603	-94.30096	962.01607	-437.21416	-90.00252	968.66468	-475.66631	-74.58167	798.34331	-192.31672	-62.76765	677.54279	-222.12704	-59.54232	722.80934	-154.82382	20.03738	791.85375	-200.59596	96.34367	852.08667	-261.33834	125.52430	819.25917	-254.99331	-50.95735	921.34468	-661.07854	-35.56504	698.97052	-660.34780	-16.77733	724.33763	-724.36360	77.98892	773.82009	-682.18890	166.81531	808.04319	-608.90023	189.09000	780.03889	-619.45807	-432.39174	661.31597	-376.73712	-444.24708	635.71443	-575.03254	-435.05619	660.46188	-387.39675	-446.61193	630.75107	-549.31763	
630	6.29000000	-145.35022	433.14981	-407.30618	-136.25091	360.81780	-386.08070	-268.04053	90.53266	-421.29495	-337.47531	52.97551	-459.77849	-169.18217	50.66195	-389.90663	-125.79386	73.50787	-444.14484	-211.61783	458.09982	-802.01540	-178.32875	396.35379	-838.01058	-269.88810	98.37748	-867.66423	-336.31144	57.56095	-816.57116	-182.43491	44.50748	-906.84376	-127.76583	67.77647	-858.27147	-174.23558	253.30564	-384.13628	-208.08352	384.02884	-389.54298	-253.46116	278.04232	-388.36332	-263.82109	420.65280	-822.35235	-289.48366	304.67941	-851.56202	-322.30196	681.14561	-365.36610	-233.80381	611.00324	-380.71460	-236.49602	560.47071	-336.92615	-364.88440	611.89410	-288.13052	-284.14608	532.59401	-322.70041	-374.54048	657.25023	-681.02737	-273.40329	586.60245	-740.15082	-451.56927	569.93823	-695.67298	-340.34809	501.82948	-754.53599	-343.32164	710.15653	-366.77061	-504.47362	790.07549	-433.20613	-359.96014	675.71698	-613.67941	-511.89764	770.86786	-537.03388	-170.03330	1094.30980	-445.67823	-125.38459	994.57569	-310.76544	-101.65813	1030.69023	-605.30096	-94.57726	967.23006	-436.94824	-90.22287	973.89989	-475.38374	-76.45513	802.80381	-191.93131	-64.74679	681.96574	-221.64622	-61.65769	727.23724	-154.39068	18.20346	796.09287	-199.87481	94.85756	856.27551	-260.35285	123.94715	823.23188	-254.01397	-50.96342	926.06471	-660.52064	-36.69925	703.56448	-661.28553	-16.91983	729.51315	-724.89186	77.79027	778.68085	-682.27243	166.36340	812.79444	-608.64980	188.67017	784.67624	-619.03520	-431.32584	663.77937	-376.74044	-442.99930	638.20262	-575.04965	-433.90257	663.24655	-387.35101	-445.46827	633.32337	-549.10390	
631	6.30000000	-145.66626	433.33215	-406.71335	-136.91866	360.81893	-385.80040	-268.07026	90.50734	-421.27851	-337.49116	52.96131	-459.79991	-169.16663	50.62216	-389.73780	-125.78718	73.46974	-444.05934	-211.70722	458.14812	-802.19047	-178.52517	396.28295	-838.12864	-269.94112	98.30500	-867.74305	-336.33633	57.51179	-816.60625	-182.44237	44.43128	-906.92284	-127.77459	67.88282	-858.58720	-174.67283	253.36945	-383.69651	-208.51990	384.24690	-389.06263	-253.83947	278.03773	-388.07597	-264.06033	420.60248	-822.58783	-289.67655	304.44510	-851.42237	-320.39850	682.70660	-366.03570	-232.73939	611.98684	-380.41790	-236.08784	561.54179	-336.58516	-364.17719	613.86007	-288.18297	-283.92416	534.07863	-322.37130	-373.02533	658.85118	-681.53181	-272.47158	587.39973	-740.72288	-450.66872	571.97666	-695.66638	-340.05283	503.01733	-754.58960	-342.05688	712.52424	-366.78172	-503.18687	792.83038	-433.27987	-358.39926	678.44790	-613.62224	-510.58635	773.57284	-537.12102	-172.27805	1098.54167	-445.72514	-126.43169	999.78106	-310.54586	-101.96269	1035.95946	-605.07779	-94.87829	972.65471	-436.70880	-90.42377	979.37259	-475.02496	-78.37062	807.44147	-191.53799	-66.95382	686.57353	-221.58259	-64.00720	731.80333	-153.98179	16.25545	800.32482	-199.15038	93.27225	860.48448	-259.39023	122.16356	827.17590	-253.18678	-51.09050	931.15026	-660.15031	-37.41205	708.41968	-661.33434	-17.26310	734.75292	-725.22331	77.39218	783.76960	-682.37471	165.70262	817.65550	-608.36826	188.04003	789.55895	-618.74579	-430.14525	666.30368	-376.84737	-441.60194	640.94210	-575.19680	-432.62920	666.06144	-387.41335	-444.14854	636.08241	-549.06737	
632	6.31000000	-145.98544	433.63047	-406.15011	-137.65498	360.65737	-385.96858	-268.06661	90.48604	-421.27590	-337.47007	52.96287	-459.83055	-169.12065	50.55573	-389.62797	-125.77083	73.36976	-443.95924	-211.70709	458.31390	-802.32095	-178.68242	396.29719	-838.18767	-269.93818	98.32078	-867.81249	-336.29915	57.55101	-816.63310	-182.41610	44.36888	-906.98046	-127.76905	67.93058	-858.80220	-175.00593	253.51475	-383.19469	-208.93852	384.38537	-388.65626	-254.23476	278.00437	-387.87823	-264.22524	420.62931	-822.84179	-289.74690	304.39211	-851.45252	-318.22135	684.07819	-367.00434	-231.70474	613.03385	-380.04916	-235.66067	562.62741	-336.15238	-363.41251	615.81238	-288.28543	-283.61856	535.65161	-321.82395	-371.35296	660.32693	-681.53794	-271.35745	588.24481	-741.21772	-449.62587	574.12090	-695.53935	-339.61570	504.32101	-754.69752	-340.52831	715.52524	-366.48917	-501.95152	795.65803	-433.31110	-356.69939	681.39003	-613.61670	-509.24769	776.42117	-537.27376	-174.41349	1103.06328	-445.85520	-127.49469	1005.18409	-310.26458	-102.42582	1041.43948	-604.73757	-95.17502	978.32407	-436.41028	-90.63058	985.08295	-474.72810	-80.32011	812.24258	-191.15140	-69.18801	691.37732	-222.17453	-66.54207	736.46917	-153.68824	14.17413	804.64669	-198.48137	91.59293	864.64594	-258.53192	120.23824	831.12779	-252.48368	-51.35567	936.77762	-660.22261	-38.14837	713.61226	-661.39101	-17.86150	740.23703	-725.64067	76.70053	789.17381	-682.51936	164.78413	822.68148	-608.06949	187.14626	794.64039	-618.52314	-428.69641	669.21933	-376.81157	-439.92395	643.81769	-575.16911	-431.12193	668.81236	-387.23619	-442.48163	638.86246	-549.09532	
